<?xml version="1.0" encoding="UTF-8"?>
<svg xmlns="http://www.w3.org/2000/svg" xmlns:xlink="http://www.w3.org/1999/xlink" width="37.5pt" height="37.499999pt" viewBox="0 0 37.5 37.499999" version="1.2">
<defs>
<clipPath id="clip1">
  <path d="M 1.875 2.25 L 35.625 2.25 L 35.625 36 L 1.875 36 Z M 1.875 2.25 "/>
</clipPath>
</defs>
<g id="surface1">
<g clip-path="url(#clip1)" clip-rule="nonzero">
<path style=" stroke:none;fill-rule:nonzero;fill:rgb(18.818665%,49.01886%,27.449036%);fill-opacity:1;" d="M 32.8125 2.25 L 4.6875 2.25 C 3.136719 2.25 1.875 3.507812 1.875 5.0625 L 1.875 33.1875 C 1.875 34.742188 3.136719 36 4.6875 36 L 32.8125 36 C 34.363281 36 35.625 34.742188 35.625 33.1875 L 35.625 5.0625 C 35.625 3.507812 34.363281 2.25 32.8125 2.25 Z M 26.925781 25.949219 L 26.925781 25.953125 C 26.644531 26.628906 26.199219 27.226562 25.625 27.6875 C 25.035156 28.164062 24.289062 28.558594 23.367188 28.839844 C 22.445312 29.125 21.351562 29.269531 20.085938 29.269531 L 11.039062 29.269531 L 11.039062 9.582031 L 20.605469 9.582031 C 22.375 9.582031 23.792969 9.980469 24.851562 10.792969 C 25.921875 11.605469 26.453125 12.820312 26.453125 14.460938 C 26.453125 15.453125 26.210938 16.304688 25.726562 17.007812 C 25.242188 17.707031 24.542969 18.253906 23.644531 18.632812 L 23.644531 18.699219 C 24.84375 18.949219 25.773438 19.519531 26.386719 20.40625 C 26.996094 21.292969 27.3125 22.410156 27.3125 23.761719 C 27.3125 24.519531 27.164062 25.238281 26.890625 25.910156 Z M 26.925781 25.949219 "/>
</g>
<path style=" stroke:none;fill-rule:nonzero;fill:rgb(18.818665%,49.01886%,27.449036%);fill-opacity:1;" d="M 23.019531 21.101562 C 22.445312 20.574219 21.632812 20.316406 20.589844 20.316406 L 14.511719 20.316406 L 14.511719 26.457031 L 20.605469 26.457031 C 21.644531 26.457031 22.460938 26.1875 23.039062 25.644531 C 23.613281 25.101562 23.910156 24.328125 23.910156 23.335938 C 23.898438 22.367188 23.613281 21.617188 23.039062 21.101562 Z M 23.019531 21.101562 "/>
<path style=" stroke:none;fill-rule:nonzero;fill:rgb(18.818665%,49.01886%,27.449036%);fill-opacity:1;" d="M 22.171875 17.132812 L 22.175781 17.132812 C 22.734375 16.660156 23.007812 15.980469 23.007812 15.101562 C 23.007812 14.109375 22.761719 13.40625 22.261719 13.003906 C 21.765625 12.605469 21.050781 12.394531 20.113281 12.394531 L 14.488281 12.394531 L 14.488281 17.828125 L 20.113281 17.828125 C 20.933594 17.828125 21.632812 17.589844 22.171875 17.132812 Z M 22.171875 17.132812 "/>
</g>
</svg>
