<?xml version="1.0" encoding="UTF-8"?>
<svg xmlns="http://www.w3.org/2000/svg" xmlns:xlink="http://www.w3.org/1999/xlink" width="37.5pt" height="37.499999pt" viewBox="0 0 37.5 37.499999" version="1.2">
<defs>
<clipPath id="clip1">
  <path d="M 3.75 1.523438 L 34.5 1.523438 L 34.5 36.023438 L 3.75 36.023438 Z M 3.75 1.523438 "/>
</clipPath>
</defs>
<g id="surface1">
<g clip-path="url(#clip1)" clip-rule="nonzero">
<path style=" stroke:none;fill-rule:nonzero;fill:rgb(18.818665%,49.01886%,27.449036%);fill-opacity:1;" d="M 3.785156 1.523438 L 6.660156 32.671875 L 19.117188 36.023438 L 31.578125 32.667969 L 34.453125 1.523438 Z M 28.277344 11.617188 L 19.105469 15.539062 L 19.082031 15.546875 L 27.953125 15.546875 L 26.9375 27.210938 L 19.117188 29.496094 L 11.257812 27.167969 L 10.753906 21.296875 L 14.640625 21.296875 L 14.894531 24.339844 L 19.078125 25.394531 L 23.433594 24.167969 L 23.726562 19.269531 L 10.5 19.222656 L 10.5 19.21875 L 10.484375 19.222656 L 10.191406 15.546875 L 19.109375 11.835938 L 19.628906 11.617188 L 9.851562 11.617188 L 9.382812 7.859375 L 28.660156 7.859375 Z M 28.277344 11.617188 "/>
</g>
</g>
</svg>
