<?xml version="1.0" encoding="UTF-8"?>
<svg xmlns="http://www.w3.org/2000/svg" xmlns:xlink="http://www.w3.org/1999/xlink" width="37.5pt" height="37.499999pt" viewBox="0 0 37.5 37.499999" version="1.2">
<defs>
<clipPath id="clip1">
  <path d="M 1.8125 1.8125 L 35.5625 1.8125 L 35.5625 35.5625 L 1.8125 35.5625 Z M 1.8125 1.8125 "/>
</clipPath>
</defs>
<g id="surface1">
<g clip-path="url(#clip1)" clip-rule="nonzero">
<path style=" stroke:none;fill-rule:nonzero;fill:rgb(18.818665%,49.01886%,27.449036%);fill-opacity:1;" d="M 29.234375 35.5625 L 8.140625 35.5625 C 4.644531 35.5625 1.8125 32.730469 1.8125 29.234375 L 1.8125 8.140625 C 1.8125 4.644531 4.644531 1.8125 8.140625 1.8125 L 29.234375 1.8125 C 32.730469 1.8125 35.5625 4.644531 35.5625 8.140625 L 35.5625 29.234375 C 35.5625 32.730469 32.730469 35.5625 29.234375 35.5625 Z M 29.234375 35.5625 "/>
</g>
<path style=" stroke:none;fill-rule:nonzero;fill:rgb(100%,100%,100%);fill-opacity:1;" d="M 24.3125 18.6875 C 24.3125 19.058594 24.238281 19.417969 24.097656 19.761719 C 23.953125 20.105469 23.75 20.410156 23.488281 20.675781 C 23.222656 20.9375 22.921875 21.140625 22.574219 21.285156 C 22.230469 21.425781 21.875 21.496094 21.5 21.496094 C 21.128906 21.496094 20.769531 21.425781 20.425781 21.285156 C 20.082031 21.140625 19.777344 20.9375 19.511719 20.675781 C 19.25 20.410156 19.046875 20.105469 18.902344 19.761719 C 18.761719 19.417969 18.691406 19.058594 18.691406 18.6875 C 18.691406 18.3125 18.761719 17.957031 18.902344 17.609375 C 19.046875 17.265625 19.25 16.960938 19.511719 16.699219 C 19.777344 16.433594 20.082031 16.230469 20.425781 16.089844 C 20.769531 15.945312 21.128906 15.875 21.5 15.875 C 21.875 15.875 22.230469 15.945312 22.574219 16.089844 C 22.921875 16.230469 23.222656 16.433594 23.488281 16.699219 C 23.75 16.960938 23.953125 17.265625 24.097656 17.609375 C 24.238281 17.957031 24.3125 18.3125 24.3125 18.6875 Z M 24.3125 18.6875 "/>
<path style=" stroke:none;fill-rule:nonzero;fill:rgb(100%,100%,100%);fill-opacity:1;" d="M 13.0625 24.3125 C 13.0625 25.867188 14.320312 27.125 15.875 27.125 C 17.425781 27.125 18.683594 25.867188 18.683594 24.3125 L 18.683594 15.875 L 21.5 15.875 C 23.054688 15.875 24.3125 14.617188 24.3125 13.0625 C 24.3125 11.511719 23.054688 10.25 21.5 10.25 L 15.875 10.25 C 14.320312 10.25 13.0625 11.507812 13.0625 13.0625 C 13.0625 14.613281 14.320312 15.875 15.875 15.875 C 14.320312 15.875 13.0625 17.136719 13.0625 18.6875 C 13.0625 20.242188 14.320312 21.5 15.875 21.5 C 14.320312 21.5 13.0625 22.757812 13.0625 24.3125 Z M 13.0625 24.3125 "/>
</g>
</svg>
