<?xml version="1.0" encoding="UTF-8" standalone="no"?>
<svg
   xmlns:dc="http://purl.org/dc/elements/1.1/"
   xmlns:cc="http://creativecommons.org/ns#"
   xmlns:rdf="http://www.w3.org/1999/02/22-rdf-syntax-ns#"
   xmlns:svg="http://www.w3.org/2000/svg"
   xmlns="http://www.w3.org/2000/svg"
   xmlns:sodipodi="http://sodipodi.sourceforge.net/DTD/sodipodi-0.dtd"
   xmlns:inkscape="http://www.inkscape.org/namespaces/inkscape"
   width="487.85684"
   height="487.85654"
   viewBox="0 0 129.07878 129.07871"
   version="1.1"
   id="svg8"
   inkscape:version="1.0.2-2 (e86c870879, 2021-01-15)"
   sodipodi:docname="Figma Solid Green v2.svg">
  <defs
     id="defs2">
    <clipPath
       id="clip1">
      <path
         d="m 1.8125,1.8125 h 33.75 v 33.75 h -33.75 z m 0,0"
         id="path30" />
    </clipPath>
  </defs>
  <sodipodi:namedview
     id="base"
     pagecolor="#ffffff"
     bordercolor="#666666"
     borderopacity="1.0"
     inkscape:pageopacity="0.0"
     inkscape:pageshadow="2"
     inkscape:zoom="0.35"
     inkscape:cx="-148.92858"
     inkscape:cy="355.83332"
     inkscape:document-units="mm"
     inkscape:current-layer="layer1"
     inkscape:document-rotation="0"
     showgrid="false"
     inkscape:pagecheckerboard="true"
     fit-margin-top="20"
     fit-margin-left="20"
     fit-margin-right="20"
     fit-margin-bottom="20"
     lock-margins="true"
     units="px"
     inkscape:window-width="1814"
     inkscape:window-height="1040"
     inkscape:window-x="2605"
     inkscape:window-y="155"
     inkscape:window-maximized="0" />
  <metadata
     id="metadata5">
    <rdf:RDF>
      <cc:Work
         rdf:about="">
        <dc:format>image/svg+xml</dc:format>
        <dc:type
           rdf:resource="http://purl.org/dc/dcmitype/StillImage" />
        <dc:title></dc:title>
      </cc:Work>
    </rdf:RDF>
  </metadata>
  <g
     inkscape:label="Layer 1"
     inkscape:groupmode="layer"
     id="layer1"
     transform="translate(-40.159972,-55.279022)">
    <g
       clip-path="url(#clip1)"
       clip-rule="nonzero"
       id="g37"
       transform="matrix(3.5109788,0,0,3.5109788,39.08799,54.20704)">
      <path
         id="path35"
         style="fill:#2e7d45;fill-opacity:1;fill-rule:nonzero;stroke:none;stroke-width:13.2698"
         d="m 255.75977,228.92773 c -46.39262,0 -83.97461,37.582 -83.97461,83.97461 V 592.8125 c 0,46.39261 37.58199,83.97266 83.97461,83.97266 h 279.91015 c 46.39261,0 83.97266,-37.58005 83.97266,-83.97266 V 312.90234 c 0,-46.39261 -37.58005,-83.97461 -83.97266,-83.97461 z m 102.63281,111.96485 h 74.64258 c 20.63047,0 37.32226,16.74365 37.32226,37.32226 0,20.63048 -16.69179,37.32032 -37.32226,37.32032 4.9762,0 9.69438,0.93364 14.25586,2.85156 4.61336,1.86606 8.60408,4.56115 12.1289,8.08594 3.47297,3.47297 6.16802,7.51661 8.08594,12.07812 1.86607,4.61337 2.85156,9.33044 2.85156,14.30664 0,4.92435 -0.98549,9.6924 -2.85156,14.25391 -1.91792,4.56151 -4.61297,8.60607 -8.08594,12.13086 -3.52482,3.47297 -7.51554,6.16805 -12.1289,8.08593 -4.56148,1.86607 -9.27966,2.79883 -14.25586,2.79883 -4.92435,0 -9.6924,-0.93272 -14.25391,-2.79883 -4.56147,-1.91788 -8.60408,-4.61296 -12.12891,-8.08593 -3.47297,-3.52479 -6.17,-7.56935 -8.08789,-12.13086 -1.86606,-4.56151 -2.79883,-9.32956 -2.79883,-14.25391 0,-4.9762 0.93273,-9.69327 2.79883,-14.30664 1.91789,-4.56151 4.61492,-8.60515 8.08789,-12.07812 3.52483,-3.52479 7.56744,-6.21988 12.12891,-8.08594 4.56151,-1.91792 9.32956,-2.85156 14.25391,-2.85156 H 395.66211 V 527.5 c 0,20.63048 -16.6909,37.32227 -37.26953,37.32227 -20.63046,0 -37.32031,-16.69179 -37.32031,-37.32227 0,-20.63044 16.68985,-37.32227 37.32031,-37.32227 -20.63046,0 -37.32031,-16.68987 -37.32031,-37.32031 0,-20.57862 16.68985,-37.32226 37.32031,-37.32226 -20.63046,0 -37.32031,-16.7417 -37.32031,-37.32032 0,-20.63046 16.68985,-37.32226 37.32031,-37.32226 z"
         transform="matrix(0.07535885,0,0,0.07535885,-11.133075,-15.439296)" />
    </g>
    <g
       id="g67">
      <g
         id="g167" />
    </g>
  </g>
  <g
     inkscape:groupmode="layer"
     id="layer2"
     inkscape:label="Layer 2"
     transform="translate(-40.159972,-55.279022)" />
</svg>
