<?xml version="1.0" encoding="UTF-8" standalone="no"?>
<svg
   width="37.5"
   zoomAndPan="magnify"
   viewBox="0 0 37.5 37.499999"
   height="37.499999"
   preserveAspectRatio="xMidYMid meet"
   version="1.0"
   id="svg33"
   sodipodi:docname="firebase_logo_green.svg"
   inkscape:version="1.1 (c68e22c387, 2021-05-23)"
   xmlns:inkscape="http://www.inkscape.org/namespaces/inkscape"
   xmlns:sodipodi="http://sodipodi.sourceforge.net/DTD/sodipodi-0.dtd"
   xmlns="http://www.w3.org/2000/svg"
   xmlns:svg="http://www.w3.org/2000/svg">
  <sodipodi:namedview
     id="namedview35"
     pagecolor="#ffffff"
     bordercolor="#666666"
     borderopacity="1.0"
     inkscape:pageshadow="2"
     inkscape:pageopacity="0.0"
     inkscape:pagecheckerboard="0"
     showgrid="false"
     inkscape:zoom="23.28"
     inkscape:cx="18.75"
     inkscape:cy="18.75"
     inkscape:window-width="1920"
     inkscape:window-height="1017"
     inkscape:window-x="-8"
     inkscape:window-y="223"
     inkscape:window-maximized="1"
     inkscape:current-layer="svg33" />
  <defs
     id="defs11">
    <clipPath
       id="clip-0">
      <path
         d="M 5.78125 0.707031 L 18 0.707031 L 18 30 L 5.78125 30 Z M 5.78125 0.707031 "
         clip-rule="nonzero"
         id="path2" />
    </clipPath>
    <clipPath
       id="clip-1">
      <path
         d="M 5.78125 7 L 32 7 L 32 35.207031 L 5.78125 35.207031 Z M 5.78125 7 "
         clip-rule="nonzero"
         id="path5" />
    </clipPath>
    <clipPath
       id="clip-2">
      <path
         d="M 5.78125 4 L 25 4 L 25 30 L 5.78125 30 Z M 5.78125 4 "
         clip-rule="nonzero"
         id="path8" />
    </clipPath>
  </defs>
  <g
     clip-path="url(#clip-0)"
     id="g23">
    <path
       fill="rgb(18.818665%, 49.01886%, 27.449036%)"
       d="M 7.007812 29.019531 C 6.949219 29.019531 6.886719 29.011719 6.824219 29.003906 C 6.234375 28.902344 5.839844 28.351562 5.941406 27.769531 L 10.371094 2.4375 C 10.5 1.695312 11.066406 1.128906 11.816406 0.996094 C 12.558594 0.867188 13.289062 1.203125 13.667969 1.851562 L 17.648438 8.664062 C 17.945312 9.175781 17.765625 9.828125 17.25 10.121094 C 16.730469 10.414062 16.070312 10.238281 15.773438 9.730469 L 12.324219 3.824219 L 8.074219 28.132812 C 7.980469 28.652344 7.523438 29.019531 7.007812 29.019531 Z M 7.007812 29.019531 "
       fill-opacity="1"
       fill-rule="nonzero"
       id="path21" />
  </g>
  <g
     clip-path="url(#clip-1)"
     id="g27">
    <path
       fill="rgb(18.818665%, 49.01886%, 27.449036%)"
       d="M 18.90625 35.089844 C 18.191406 35.089844 17.476562 34.910156 16.824219 34.554688 L 6.480469 28.890625 C 6.1875 28.726562 5.984375 28.4375 5.9375 28.109375 C 5.890625 27.777344 6 27.445312 6.238281 27.207031 L 25.582031 7.921875 C 26.050781 7.453125 26.742188 7.285156 27.378906 7.484375 C 28.019531 7.683594 28.488281 8.214844 28.601562 8.875 L 31.871094 27.78125 C 31.949219 28.222656 31.734375 28.671875 31.332031 28.890625 L 20.988281 34.554688 C 20.335938 34.910156 19.621094 35.089844 18.90625 35.089844 Z M 8.78125 27.707031 L 17.875 32.691406 C 18.519531 33.042969 19.292969 33.042969 19.9375 32.691406 L 29.613281 27.394531 L 26.59375 9.949219 Z M 8.78125 27.707031 "
       fill-opacity="1"
       fill-rule="nonzero"
       id="path25" />
  </g>
  <g
     clip-path="url(#clip-2)"
     id="g31">
    <path
       fill="rgb(18.818665%, 49.01886%, 27.449036%)"
       d="M 7.003906 29.019531 C 6.839844 29.019531 6.671875 28.980469 6.515625 28.902344 C 5.984375 28.632812 5.769531 27.992188 6.042969 27.464844 L 17.351562 5.609375 C 17.648438 5.03125 18.242188 4.664062 18.898438 4.648438 C 19.480469 4.636719 20.164062 4.980469 20.488281 5.550781 L 23.894531 11.542969 C 24.1875 12.054688 24 12.707031 23.480469 12.992188 C 22.960938 13.28125 22.300781 13.097656 22.007812 12.585938 L 18.953125 7.210938 L 7.96875 28.4375 C 7.78125 28.804688 7.398438 29.019531 7.003906 29.019531 Z M 7.003906 29.019531 "
       fill-opacity="1"
       fill-rule="nonzero"
       id="path29" />
  </g>
</svg>
