<?xml version="1.0" encoding="UTF-8"?><svg xmlns="http://www.w3.org/2000/svg" xmlns:xlink="http://www.w3.org/1999/xlink" width="37.5" zoomAndPan="magnify" viewBox="0 0 37.5 37.499999" height="37.499999" preserveAspectRatio="xMidYMid meet" version="1.0"><defs><clipPath id="clip-0"><path d="M 0 0 L 37.007812 0 L 37.007812 37.007812 L 0 37.007812 Z M 0 0 " clip-rule="nonzero"/></clipPath></defs><g clip-path="url(#clip-0)"><path fill="rgb(18.818665%, 49.01886%, 27.449036%)" d="M 36.570312 17.097656 L 20.398438 0.929688 C 19.46875 0 17.957031 0 17.027344 0.929688 L 13.667969 4.289062 L 17.929688 8.546875 C 18.917969 8.214844 20.054688 8.4375 20.84375 9.226562 C 21.636719 10.019531 21.859375 11.164062 21.515625 12.160156 L 25.621094 16.265625 C 26.613281 15.921875 27.757812 16.144531 28.554688 16.9375 C 29.660156 18.046875 29.660156 19.84375 28.554688 20.949219 C 27.445312 22.058594 25.648438 22.058594 24.539062 20.949219 C 23.703125 20.117188 23.5 18.890625 23.921875 17.863281 L 20.09375 14.035156 L 20.089844 24.109375 C 20.363281 24.246094 20.617188 24.421875 20.84375 24.648438 C 21.949219 25.753906 21.949219 27.550781 20.84375 28.660156 C 19.734375 29.769531 17.933594 29.769531 16.828125 28.660156 C 15.71875 27.550781 15.71875 25.753906 16.828125 24.648438 C 17.101562 24.375 17.417969 24.167969 17.757812 24.027344 L 17.757812 13.859375 C 17.417969 13.722656 17.105469 13.515625 16.828125 13.238281 C 15.988281 12.402344 15.785156 11.167969 16.214844 10.136719 L 12.019531 5.9375 L 0.929688 17.027344 C 0 17.957031 0 19.46875 0.929688 20.398438 L 17.101562 36.570312 C 18.03125 37.5 19.542969 37.5 20.476562 36.570312 L 36.570312 20.472656 C 37.5 19.542969 37.5 18.03125 36.570312 17.097656 " fill-opacity="1" fill-rule="nonzero"/></g></svg>