<?xml version="1.0" encoding="UTF-8"?>
<svg xmlns="http://www.w3.org/2000/svg" xmlns:xlink="http://www.w3.org/1999/xlink" width="37.5pt" height="37.499999pt" viewBox="0 0 37.5 37.499999" version="1.2">
<defs>
<clipPath id="clip1">
  <path d="M 1.3125 1.3125 L 36.5625 1.3125 L 36.5625 36.5625 L 1.3125 36.5625 Z M 1.3125 1.3125 "/>
</clipPath>
</defs>
<g id="surface1">
<g clip-path="url(#clip1)" clip-rule="nonzero">
<path style=" stroke:none;fill-rule:nonzero;fill:rgb(18.818665%,49.01886%,27.449036%);fill-opacity:1;" d="M 18.9375 1.605469 C 9.203125 1.605469 1.3125 9.496094 1.3125 19.230469 C 1.3125 27.488281 7 34.402344 14.667969 36.3125 C 14.585938 36.074219 14.53125 35.796875 14.53125 35.457031 L 14.53125 32.445312 C 13.816406 32.445312 12.617188 32.445312 12.316406 32.445312 C 11.109375 32.445312 10.039062 31.925781 9.519531 30.960938 C 8.941406 29.890625 8.839844 28.253906 7.410156 27.253906 C 6.984375 26.917969 7.308594 26.539062 7.796875 26.589844 C 8.703125 26.84375 9.449219 27.464844 10.15625 28.382812 C 10.859375 29.304688 11.1875 29.515625 12.5 29.515625 C 13.136719 29.515625 14.085938 29.476562 14.984375 29.335938 C 15.464844 28.113281 16.296875 26.984375 17.316406 26.453125 C 11.445312 25.851562 8.644531 22.929688 8.644531 18.96875 C 8.644531 17.261719 9.371094 15.609375 10.609375 14.21875 C 10.203125 12.835938 9.691406 10.023438 10.765625 8.949219 C 13.40625 8.949219 15 10.664062 15.382812 11.125 C 16.699219 10.675781 18.144531 10.417969 19.664062 10.417969 C 21.1875 10.417969 22.636719 10.675781 23.957031 11.128906 C 24.335938 10.667969 25.933594 8.949219 28.578125 8.949219 C 29.65625 10.023438 29.140625 12.851562 28.730469 14.230469 C 29.957031 15.617188 30.679688 17.261719 30.679688 18.96875 C 30.679688 22.929688 27.882812 25.847656 22.023438 26.453125 C 23.636719 27.292969 24.8125 29.660156 24.8125 31.441406 L 24.8125 35.457031 C 24.8125 35.609375 24.777344 35.71875 24.761719 35.851562 C 31.628906 33.441406 36.5625 26.921875 36.5625 19.230469 C 36.5625 9.496094 28.671875 1.605469 18.9375 1.605469 Z M 18.9375 1.605469 "/>
</g>
</g>
</svg>
