<?xml version="1.0" encoding="UTF-8"?><svg xmlns="http://www.w3.org/2000/svg" xmlns:xlink="http://www.w3.org/1999/xlink" width="37.5" zoomAndPan="magnify" viewBox="0 0 37.5 37.499999" height="37.499999" preserveAspectRatio="xMidYMid meet" version="1.0"><defs><clipPath id="clip-0"><path d="M 0 1 L 36.75 1 L 36.75 37.007812 L 0 37.007812 Z M 0 1 " clip-rule="nonzero"/></clipPath></defs><g clip-path="url(#clip-0)"><path fill="rgb(18.818665%, 49.01886%, 27.449036%)" d="M 18.375 1.054688 C 8.226562 1.054688 0 9.285156 0 19.429688 C 0 28.042969 5.929688 35.246094 13.921875 37.238281 C 13.835938 36.992188 13.78125 36.703125 13.78125 36.347656 L 13.78125 33.207031 C 13.035156 33.207031 11.785156 33.207031 11.472656 33.207031 C 10.214844 33.207031 9.097656 32.664062 8.554688 31.660156 C 7.953125 30.546875 7.847656 28.835938 6.359375 27.792969 C 5.914062 27.445312 6.253906 27.050781 6.761719 27.101562 C 7.703125 27.371094 8.484375 28.015625 9.21875 28.972656 C 9.953125 29.933594 10.296875 30.152344 11.664062 30.152344 C 12.328125 30.152344 13.320312 30.113281 14.253906 29.964844 C 14.753906 28.691406 15.625 27.515625 16.683594 26.960938 C 10.566406 26.332031 7.644531 23.289062 7.644531 19.15625 C 7.644531 17.375 8.402344 15.65625 9.691406 14.207031 C 9.269531 12.765625 8.738281 9.832031 9.855469 8.710938 C 12.605469 8.710938 14.269531 10.496094 14.671875 10.980469 C 16.042969 10.511719 17.550781 10.242188 19.132812 10.242188 C 20.71875 10.242188 22.230469 10.511719 23.605469 10.984375 C 24.003906 10.503906 25.667969 8.710938 28.425781 8.710938 C 29.546875 9.832031 29.011719 12.78125 28.582031 14.214844 C 29.863281 15.664062 30.617188 17.378906 30.617188 19.15625 C 30.617188 23.285156 27.703125 26.328125 21.59375 26.960938 C 23.273438 27.835938 24.5 30.304688 24.5 32.160156 L 24.5 36.347656 C 24.5 36.507812 24.464844 36.621094 24.445312 36.757812 C 31.605469 34.246094 36.75 27.449219 36.75 19.429688 C 36.75 9.285156 28.523438 1.054688 18.375 1.054688 Z M 18.375 1.054688 " fill-opacity="1" fill-rule="nonzero"/></g></svg>