<?xml version="1.0" encoding="UTF-8"?><svg xmlns="http://www.w3.org/2000/svg" xmlns:xlink="http://www.w3.org/1999/xlink" width="37.5" zoomAndPan="magnify" viewBox="0 0 37.5 37.499999" height="37.499999" preserveAspectRatio="xMidYMid meet" version="1.0"><defs><clipPath id="clip-0"><path d="M 4.148438 0 L 33.398438 0 L 33.398438 37.007812 L 4.148438 37.007812 Z M 4.148438 0 " clip-rule="nonzero"/></clipPath></defs><g clip-path="url(#clip-0)"><path fill="rgb(18.818665%, 49.01886%, 27.449036%)" d="M 29.207031 0 L 8.339844 0 C 6.042969 0 4.167969 1.871094 4.167969 4.167969 L 4.167969 33.332031 C 4.167969 35.628906 6.042969 37.5 8.339844 37.5 L 29.207031 37.5 C 31.503906 37.5 33.378906 35.628906 33.378906 33.332031 L 33.378906 4.167969 C 33.378906 1.871094 31.503906 0 29.207031 0 Z M 10.425781 31.25 L 10.425781 25 L 14.601562 28.125 Z M 27.121094 31.25 L 22.945312 31.25 C 22.945312 31.25 22.945312 24.789062 22.945312 20.777344 C 22.945312 19.578125 21.8125 16.1875 10.453125 20.832031 C 10.425781 20.90625 10.425781 6.28125 10.425781 6.28125 L 14.601562 6.25 L 14.601562 15.347656 C 14.601562 15.347656 27.121094 11.695312 27.121094 20.832031 Z M 25.050781 10.417969 C 23.792969 10.417969 21.488281 10.417969 20.859375 10.417969 C 22.179688 8.40625 23.214844 6.25 23.214844 6.25 L 27.144531 6.25 C 27.144531 6.25 26.605469 7.976562 25.050781 10.417969 Z M 25.050781 10.417969 " fill-opacity="1" fill-rule="nonzero"/></g></svg>