<?xml version="1.0" encoding="UTF-8"?>
<svg xmlns="http://www.w3.org/2000/svg" xmlns:xlink="http://www.w3.org/1999/xlink" width="37.5pt" height="37.499999pt" viewBox="0 0 37.5 37.499999" version="1.2">
<defs>
<clipPath id="clip1">
  <path d="M 8 1.550781 L 14 1.550781 L 14 7 L 8 7 Z M 8 1.550781 "/>
</clipPath>
<clipPath id="clip2">
  <path d="M 14 1.550781 L 19 1.550781 L 19 7 L 14 7 Z M 14 1.550781 "/>
</clipPath>
<clipPath id="clip3">
  <path d="M 19 1.550781 L 25 1.550781 L 25 7 L 19 7 Z M 19 1.550781 "/>
</clipPath>
<clipPath id="clip4">
  <path d="M 25 1.550781 L 29 1.550781 L 29 7 L 25 7 Z M 25 1.550781 "/>
</clipPath>
<clipPath id="clip5">
  <path d="M 6.460938 8 L 31.210938 8 L 31.210938 36.050781 L 6.460938 36.050781 Z M 6.460938 8 "/>
</clipPath>
</defs>
<g id="surface1">
<g clip-path="url(#clip1)" clip-rule="nonzero">
<path style=" stroke:none;fill-rule:nonzero;fill:rgb(18.818665%,49.01886%,27.449036%);fill-opacity:1;" d="M 10.394531 4.648438 L 11.824219 4.648438 L 11.824219 6.210938 L 13.390625 6.210938 L 13.390625 1.546875 L 11.824219 1.546875 L 11.824219 3.089844 L 10.394531 3.089844 L 10.394531 1.546875 L 8.828125 1.546875 L 8.828125 6.210938 L 10.394531 6.210938 Z M 10.394531 4.648438 "/>
</g>
<g clip-path="url(#clip2)" clip-rule="nonzero">
<path style=" stroke:none;fill-rule:nonzero;fill:rgb(18.818665%,49.01886%,27.449036%);fill-opacity:1;" d="M 15.449219 6.210938 L 17.015625 6.210938 L 17.015625 3.09375 L 18.394531 3.09375 L 18.394531 1.546875 L 14.074219 1.546875 L 14.074219 3.09375 L 15.449219 3.09375 Z M 15.449219 6.210938 "/>
</g>
<g clip-path="url(#clip3)" clip-rule="nonzero">
<path style=" stroke:none;fill-rule:nonzero;fill:rgb(18.818665%,49.01886%,27.449036%);fill-opacity:1;" d="M 20.613281 3.902344 L 21.691406 5.558594 L 21.71875 5.558594 L 22.792969 3.902344 L 22.792969 6.210938 L 24.355469 6.210938 L 24.355469 1.546875 L 22.722656 1.546875 L 21.71875 3.1875 L 20.714844 1.546875 L 19.082031 1.546875 L 19.082031 6.210938 L 20.613281 6.210938 Z M 20.613281 3.902344 "/>
</g>
<g clip-path="url(#clip4)" clip-rule="nonzero">
<path style=" stroke:none;fill-rule:nonzero;fill:rgb(18.818665%,49.01886%,27.449036%);fill-opacity:1;" d="M 28.902344 4.671875 L 26.699219 4.671875 L 26.699219 1.546875 L 25.132812 1.546875 L 25.132812 6.210938 L 28.902344 6.210938 Z M 28.902344 4.671875 "/>
</g>
<g clip-path="url(#clip5)" clip-rule="nonzero">
<path style=" stroke:none;fill-rule:nonzero;fill:rgb(18.818665%,49.01886%,27.449036%);fill-opacity:1;" d="M 6.570312 8.257812 L 8.808594 33.277344 L 18.863281 36.054688 L 28.925781 33.277344 L 31.167969 8.257812 Z M 26.308594 16.441406 L 14.519531 16.441406 L 14.800781 19.582031 L 26.03125 19.582031 L 25.183594 29.007812 L 18.867188 30.75 L 18.863281 30.75 L 12.550781 29.007812 L 12.113281 24.078125 L 15.203125 24.078125 L 15.433594 26.632812 L 18.863281 27.558594 L 18.871094 27.554688 L 22.304688 26.632812 L 22.660156 22.652344 L 11.984375 22.652344 L 11.152344 13.375 L 26.585938 13.375 Z M 26.308594 16.441406 "/>
</g>
</g>
</svg>
