<?xml version="1.0" encoding="UTF-8"?>
<svg xmlns="http://www.w3.org/2000/svg" xmlns:xlink="http://www.w3.org/1999/xlink" width="37.5pt" height="37.499999pt" viewBox="0 0 37.5 37.499999" version="1.2">
<defs>
<clipPath id="clip1">
  <path d="M 1.875 1.875 L 35.625 1.875 L 35.625 35.625 L 1.875 35.625 Z M 1.875 1.875 "/>
</clipPath>
</defs>
<g id="surface1">
<g clip-path="url(#clip1)" clip-rule="nonzero">
<path style=" stroke:none;fill-rule:nonzero;fill:rgb(18.818665%,49.01886%,27.449036%);fill-opacity:1;" d="M 33.484375 1.875 L 4.019531 1.875 C 2.835938 1.875 1.875 2.835938 1.875 4.019531 L 1.875 33.480469 C 1.875 34.664062 2.835938 35.625 4.019531 35.625 L 33.480469 35.625 C 34.664062 35.625 35.625 34.664062 35.625 33.484375 L 35.625 4.019531 C 35.625 2.835938 34.664062 1.875 33.484375 1.875 Z M 20.355469 27.738281 C 20.355469 30.949219 18.472656 32.410156 15.722656 32.410156 C 13.238281 32.410156 11.445312 30.742188 10.714844 29.195312 L 13.242188 27.667969 C 13.726562 28.53125 14.46875 29.195312 15.535156 29.195312 C 16.554688 29.195312 17.144531 28.796875 17.144531 27.246094 L 17.144531 17.144531 L 20.355469 17.144531 Z M 27.328125 32.410156 C 24.480469 32.410156 22.863281 30.976562 21.964844 29.195312 L 24.375 27.589844 C 25.03125 28.664062 25.746094 29.6875 27.257812 29.6875 C 28.53125 29.6875 29.195312 29.054688 29.195312 28.175781 C 29.195312 27.128906 28.503906 26.753906 27.109375 26.140625 L 26.34375 25.8125 C 24.128906 24.871094 22.65625 23.691406 22.65625 21.191406 C 22.65625 18.894531 24.414062 17.144531 27.148438 17.144531 C 29.097656 17.144531 30.5 17.820312 31.511719 19.597656 L 29.125 21.132812 C 28.597656 20.1875 28.03125 19.816406 27.148438 19.816406 C 26.253906 19.816406 25.683594 20.386719 25.683594 21.132812 C 25.683594 22.050781 26.253906 22.421875 27.566406 22.992188 L 28.332031 23.324219 C 30.941406 24.4375 32.410156 25.578125 32.410156 28.136719 C 32.410156 30.898438 30.242188 32.410156 27.328125 32.410156 Z M 27.328125 32.410156 "/>
</g>
</g>
</svg>
