<?xml version="1.0" encoding="UTF-8"?><svg xmlns="http://www.w3.org/2000/svg" xmlns:xlink="http://www.w3.org/1999/xlink" width="37.5" zoomAndPan="magnify" viewBox="0 0 37.5 37.499999" height="37.499999" preserveAspectRatio="xMidYMid meet" version="1.0"><defs><clipPath id="clip-0"><path d="M 0 0.914062 L 37 0.914062 L 37 36.914062 L 0 36.914062 Z M 0 0.914062 " clip-rule="nonzero"/></clipPath></defs><g clip-path="url(#clip-0)"><path fill="rgb(0.779724%, 53.329468%, 81.959534%)" d="M 18.75 0.914062 C 18.167969 0.914062 17.585938 0.941406 17.007812 1 C 16.425781 1.058594 15.851562 1.144531 15.277344 1.257812 C 14.707031 1.375 14.144531 1.515625 13.585938 1.6875 C 13.027344 1.859375 12.480469 2.054688 11.941406 2.28125 C 11.402344 2.503906 10.878906 2.757812 10.363281 3.035156 C 9.847656 3.3125 9.351562 3.613281 8.867188 3.941406 C 8.382812 4.265625 7.914062 4.617188 7.464844 4.988281 C 7.011719 5.363281 6.582031 5.757812 6.167969 6.171875 C 5.757812 6.589844 5.367188 7.023438 4.996094 7.480469 C 4.628906 7.933594 4.28125 8.40625 3.957031 8.894531 C 3.632812 9.382812 3.335938 9.886719 3.058594 10.40625 C 2.785156 10.921875 2.535156 11.453125 2.3125 12 C 2.089844 12.542969 1.894531 13.09375 1.726562 13.65625 C 1.554688 14.21875 1.414062 14.789062 1.300781 15.367188 C 1.1875 15.941406 1.101562 16.523438 1.042969 17.109375 C 0.988281 17.695312 0.957031 18.28125 0.957031 18.871094 C 0.957031 19.457031 0.988281 20.042969 1.042969 20.628906 C 1.101562 21.214844 1.1875 21.796875 1.300781 22.371094 C 1.414062 22.949219 1.554688 23.519531 1.726562 24.082031 C 1.894531 24.644531 2.089844 25.195312 2.3125 25.742188 C 2.535156 26.285156 2.785156 26.816406 3.058594 27.332031 C 3.335938 27.851562 3.632812 28.355469 3.957031 28.84375 C 4.28125 29.332031 4.628906 29.804688 4.996094 30.261719 C 5.367188 30.714844 5.757812 31.148438 6.167969 31.566406 C 6.582031 31.980469 7.011719 32.375 7.464844 32.75 C 7.914062 33.121094 8.382812 33.472656 8.867188 33.796875 C 9.351562 34.125 9.847656 34.425781 10.363281 34.703125 C 10.878906 34.980469 11.402344 35.234375 11.941406 35.457031 C 12.480469 35.683594 13.027344 35.878906 13.585938 36.050781 C 14.144531 36.222656 14.707031 36.363281 15.277344 36.480469 C 15.851562 36.59375 16.425781 36.679688 17.007812 36.738281 C 17.585938 36.796875 18.167969 36.824219 18.75 36.824219 C 19.332031 36.824219 19.914062 36.796875 20.492188 36.738281 C 21.074219 36.679688 21.648438 36.59375 22.222656 36.480469 C 22.792969 36.363281 23.355469 36.222656 23.914062 36.050781 C 24.472656 35.878906 25.019531 35.683594 25.558594 35.457031 C 26.097656 35.234375 26.621094 34.980469 27.136719 34.703125 C 27.652344 34.425781 28.148438 34.125 28.632812 33.796875 C 29.117188 33.472656 29.585938 33.121094 30.035156 32.75 C 30.488281 32.375 30.917969 31.980469 31.332031 31.566406 C 31.742188 31.148438 32.132812 30.714844 32.503906 30.261719 C 32.871094 29.804688 33.21875 29.332031 33.542969 28.84375 C 33.867188 28.355469 34.164062 27.851562 34.441406 27.332031 C 34.714844 26.816406 34.964844 26.285156 35.1875 25.742188 C 35.410156 25.195312 35.605469 24.644531 35.773438 24.082031 C 35.945312 23.519531 36.085938 22.949219 36.199219 22.371094 C 36.3125 21.796875 36.398438 21.214844 36.457031 20.628906 C 36.511719 20.042969 36.542969 19.457031 36.542969 18.871094 C 36.542969 18.28125 36.511719 17.695312 36.457031 17.109375 C 36.398438 16.523438 36.3125 15.941406 36.199219 15.367188 C 36.085938 14.789062 35.945312 14.21875 35.773438 13.65625 C 35.605469 13.09375 35.410156 12.542969 35.1875 12 C 34.964844 11.453125 34.714844 10.921875 34.441406 10.40625 C 34.164062 9.886719 33.867188 9.382812 33.542969 8.894531 C 33.21875 8.40625 32.871094 7.933594 32.503906 7.480469 C 32.132812 7.023438 31.742188 6.589844 31.332031 6.171875 C 30.917969 5.757812 30.488281 5.363281 30.035156 4.988281 C 29.585938 4.617188 29.117188 4.265625 28.632812 3.941406 C 28.148438 3.613281 27.652344 3.3125 27.136719 3.035156 C 26.621094 2.757812 26.097656 2.503906 25.558594 2.28125 C 25.019531 2.054688 24.472656 1.859375 23.914062 1.6875 C 23.355469 1.515625 22.792969 1.375 22.222656 1.257812 C 21.648438 1.144531 21.074219 1.058594 20.492188 1 C 19.914062 0.941406 19.332031 0.914062 18.75 0.914062 Z M 18.75 0.914062 " fill-opacity="1" fill-rule="nonzero"/></g><path fill="rgb(100%, 100%, 100%)" d="M 9.855469 14.378906 L 13.414062 14.378906 L 13.414062 27.847656 L 9.855469 27.847656 Z M 11.621094 12.585938 L 11.601562 12.585938 C 10.542969 12.585938 9.855469 11.785156 9.855469 10.789062 C 9.855469 9.769531 10.5625 8.992188 11.644531 8.992188 C 12.726562 8.992188 13.390625 9.769531 13.414062 10.789062 C 13.414062 11.785156 12.726562 12.585938 11.621094 12.585938 Z M 28.535156 19.316406 C 28.535156 16.589844 26.34375 14.378906 23.644531 14.378906 C 21.984375 14.378906 20.523438 15.214844 19.640625 16.484375 L 19.640625 14.378906 L 16.082031 14.378906 L 16.082031 27.847656 L 19.640625 27.847656 L 19.640625 20.664062 C 19.640625 19.175781 20.835938 17.972656 22.308594 17.972656 C 23.78125 17.972656 24.976562 19.175781 24.976562 20.664062 L 24.976562 27.847656 L 28.535156 27.847656 C 28.535156 27.847656 28.535156 19.695312 28.535156 19.316406 Z M 28.535156 19.316406 " fill-opacity="1" fill-rule="nonzero"/></svg>