<?xml version="1.0" encoding="UTF-8"?><svg xmlns="http://www.w3.org/2000/svg" xmlns:xlink="http://www.w3.org/1999/xlink" width="37.5" zoomAndPan="magnify" viewBox="0 0 37.5 37.499999" height="37.499999" preserveAspectRatio="xMidYMid meet" version="1.0"><defs><clipPath id="clip-0"><path d="M 0.449219 3.75 L 6 3.75 L 6 23 L 0.449219 23 Z M 0.449219 3.75 " clip-rule="nonzero"/></clipPath><clipPath id="clip-1"><path d="M 32 15 L 37.007812 15 L 37.007812 29 L 32 29 Z M 32 15 " clip-rule="nonzero"/></clipPath><clipPath id="clip-2"><path d="M 32 4 L 37.007812 4 L 37.007812 14 L 32 14 Z M 32 4 " clip-rule="nonzero"/></clipPath><clipPath id="clip-3"><path d="M 22 3.75 L 28 3.75 L 28 23 L 22 23 Z M 22 3.75 " clip-rule="nonzero"/></clipPath><clipPath id="clip-4"><path d="M 0.449219 3.75 L 15 3.75 L 15 18 L 0.449219 18 Z M 0.449219 3.75 " clip-rule="nonzero"/></clipPath><clipPath id="clip-5"><path d="M 14 3.75 L 28 3.75 L 28 18 L 14 18 Z M 14 3.75 " clip-rule="nonzero"/></clipPath><clipPath id="clip-6"><path d="M 23 21 L 37.007812 21 L 37.007812 35.25 L 23 35.25 Z M 23 21 " clip-rule="nonzero"/></clipPath><clipPath id="clip-7"><path d="M 14 23 L 24 23 L 24 35.25 L 14 35.25 Z M 14 23 " clip-rule="nonzero"/></clipPath></defs><g clip-path="url(#clip-0)"><path fill="rgb(18.818665%, 49.01886%, 27.449036%)" d="M 0.46875 3.75 L 5.257812 6.898438 L 5.257812 22.648438 L 0.46875 19.5 Z M 0.46875 3.75 " fill-opacity="1" fill-rule="nonzero"/></g><g clip-path="url(#clip-1)"><path fill="rgb(13.328552%, 34.899902%, 19.60907%)" d="M 37.183594 15.5625 L 32.394531 18.710938 L 32.394531 28.949219 L 37.183594 25.800781 Z M 37.183594 15.5625 " fill-opacity="1" fill-rule="nonzero"/></g><g clip-path="url(#clip-2)"><path fill="rgb(13.328552%, 34.899902%, 19.60907%)" d="M 37.183594 4.539062 L 32.394531 7.6875 L 32.394531 13.199219 L 37.183594 10.050781 Z M 37.183594 4.539062 " fill-opacity="1" fill-rule="nonzero"/></g><g clip-path="url(#clip-3)"><path fill="rgb(13.328552%, 34.899902%, 19.60907%)" d="M 27.605469 3.75 L 22.816406 6.898438 L 22.816406 22.648438 L 27.605469 19.5 Z M 27.605469 3.75 " fill-opacity="1" fill-rule="nonzero"/></g><g clip-path="url(#clip-4)"><path fill="rgb(18.818665%, 49.01886%, 27.449036%)" d="M 0.46875 9.261719 L 14.035156 17.925781 L 14.035156 12.414062 L 0.46875 3.75 Z M 0.46875 9.261719 " fill-opacity="1" fill-rule="nonzero"/></g><g clip-path="url(#clip-5)"><path fill="rgb(13.328552%, 34.899902%, 19.60907%)" d="M 27.605469 9.261719 L 14.035156 17.925781 L 14.035156 12.414062 L 27.605469 3.75 Z M 27.605469 9.261719 " fill-opacity="1" fill-rule="nonzero"/></g><path fill="rgb(13.328552%, 34.899902%, 19.60907%)" d="M 27.605469 20.289062 L 14.035156 28.949219 L 14.035156 23.4375 L 27.605469 14.773438 Z M 27.605469 20.289062 " fill-opacity="1" fill-rule="nonzero"/><g clip-path="url(#clip-6)"><path fill="rgb(13.328552%, 34.899902%, 19.60907%)" d="M 37.183594 26.585938 L 23.613281 35.25 L 23.613281 29.738281 L 37.183594 21.074219 Z M 37.183594 26.585938 " fill-opacity="1" fill-rule="nonzero"/></g><g clip-path="url(#clip-7)"><path fill="rgb(18.818665%, 49.01886%, 27.449036%)" d="M 23.613281 29.550781 L 14.035156 23.4375 L 14.035156 28.949219 L 23.613281 35.066406 Z M 23.613281 29.550781 " fill-opacity="1" fill-rule="nonzero"/></g></svg>