<?xml version="1.0" encoding="UTF-8"?><svg xmlns="http://www.w3.org/2000/svg" xmlns:xlink="http://www.w3.org/1999/xlink" width="37.5" zoomAndPan="magnify" viewBox="0 0 37.5 37.499999" height="37.499999" preserveAspectRatio="xMidYMid meet" version="1.0"><defs><clipPath id="clip-0"><path d="M 2.34375 0 L 35.34375 0 L 35.34375 37.007812 L 2.34375 37.007812 Z M 2.34375 0 " clip-rule="nonzero"/></clipPath></defs><g clip-path="url(#clip-0)"><path fill="rgb(18.818665%, 49.01886%, 27.449036%)" d="M 14.796875 32.875 C 13.832031 33.429688 13.648438 33.496094 12.742188 33.8125 C 12.523438 33.886719 12.191406 34.019531 12.867188 34.40625 L 17.40625 37.109375 C 17.839844 37.363281 18.339844 37.496094 18.835938 37.496094 L 18.835938 37.5 C 19.335938 37.5 19.828125 37.367188 20.261719 37.113281 L 33.851562 29.214844 C 34.730469 28.695312 35.277344 27.738281 35.277344 26.71875 L 35.277344 10.925781 C 35.277344 9.894531 34.734375 8.9375 33.851562 8.429688 L 20.261719 0.519531 C 19.410156 0.03125 18.269531 0.03125 17.410156 0.519531 L 3.835938 8.421875 C 2.957031 8.933594 2.414062 9.894531 2.414062 10.917969 L 2.414062 26.710938 C 2.414062 27.738281 2.957031 28.695312 3.835938 29.207031 L 7.398438 31.273438 C 9.121094 32.136719 9.734375 32.136719 10.523438 32.136719 C 13.074219 32.136719 14.546875 30.578125 14.546875 27.867188 L 14.546875 12.269531 C 14.546875 12.046875 14.363281 11.878906 14.148438 11.878906 L 12.425781 11.878906 C 12.207031 11.878906 12.03125 12.046875 12.03125 12.269531 L 12.03125 27.859375 C 12.03125 29.066406 10.792969 30.261719 8.769531 29.246094 L 5.050781 27.082031 C 4.917969 27.015625 4.835938 26.867188 4.835938 26.71875 L 4.835938 10.925781 C 4.835938 10.773438 4.917969 10.621094 5.050781 10.546875 L 18.621094 2.648438 C 18.746094 2.574219 18.914062 2.574219 19.039062 2.648438 L 32.621094 10.539062 C 32.75 10.621094 32.832031 10.761719 32.832031 10.917969 L 32.832031 26.71875 C 32.832031 26.863281 32.753906 27.011719 32.628906 27.085938 L 19.039062 34.988281 C 18.921875 35.0625 18.746094 35.0625 18.621094 34.988281 L 15.136719 32.90625 C 15.03125 32.839844 14.898438 32.816406 14.796875 32.875 Z M 14.796875 32.875 " fill-opacity="1" fill-rule="nonzero"/></g><path fill="rgb(18.818665%, 49.01886%, 27.449036%)" d="M 23.027344 24.226562 C 19.433594 24.226562 18.644531 23.3125 18.378906 21.511719 C 18.351562 21.320312 18.191406 21.179688 17.992188 21.179688 L 16.234375 21.179688 C 16.011719 21.179688 15.84375 21.359375 15.84375 21.574219 C 15.84375 23.878906 17.085938 26.625 23.035156 26.625 C 27.332031 26.617188 29.804688 24.910156 29.804688 21.929688 L 29.800781 21.929688 C 29.800781 18.972656 27.8125 18.1875 23.644531 17.632812 C 19.421875 17.070312 18.996094 16.78125 18.996094 15.789062 C 18.996094 14.964844 19.355469 13.867188 22.480469 13.867188 C 25.269531 13.867188 26.300781 14.476562 26.726562 16.371094 C 26.761719 16.550781 26.925781 16.683594 27.109375 16.683594 L 28.875 16.683594 C 28.984375 16.683594 29.085938 16.640625 29.160156 16.558594 C 29.234375 16.476562 29.269531 16.363281 29.265625 16.253906 C 28.992188 12.988281 26.835938 11.46875 22.480469 11.46875 C 18.605469 11.46875 16.296875 13.113281 16.296875 15.875 C 16.296875 18.871094 18.597656 19.699219 22.3125 20.070312 C 26.765625 20.507812 27.109375 21.167969 27.109375 22.046875 C 27.109375 23.574219 25.890625 24.226562 23.027344 24.226562 Z M 23.027344 24.226562 " fill-opacity="1" fill-rule="nonzero"/></svg>