<?xml version="1.0" encoding="UTF-8"?><svg xmlns="http://www.w3.org/2000/svg" xmlns:xlink="http://www.w3.org/1999/xlink" width="37.5" zoomAndPan="magnify" viewBox="0 0 37.5 37.499999" height="37.499999" preserveAspectRatio="xMidYMid meet" version="1.0"><defs><clipPath id="clip-0"><path d="M 0 0 L 37 0 L 37 37.007812 L 0 37.007812 Z M 0 0 " clip-rule="nonzero"/></clipPath></defs><g clip-path="url(#clip-0)"><path fill="rgb(100%, 100%, 100%)" d="M 36.121094 22.832031 C 35.964844 22.125 35.324219 21.300781 34.03125 21.300781 C 33.769531 21.300781 33.480469 21.335938 33.148438 21.402344 C 32.546875 21.527344 32.03125 21.589844 31.582031 21.609375 C 35.101562 15.609375 37.390625 7.273438 35.125 4.378906 C 32.140625 0.570312 28.125 0 25.996094 0 L 25.796875 0 C 25.003906 0.0117188 24.183594 0.109375 23.355469 0.289062 L 20.300781 0.949219 C 19.886719 0.898438 19.460938 0.859375 19.019531 0.851562 L 18.851562 0.851562 C 17.496094 0.851562 16.257812 1.140625 15.152344 1.679688 L 14.085938 1.261719 C 12.621094 0.683594 10.414062 -0.00390625 8.234375 -0.00390625 C 8.109375 -0.00390625 7.988281 -0.00390625 7.867188 0 C 5.714844 0.078125 3.871094 0.894531 2.527344 2.359375 C 0.847656 4.1875 0.0859375 6.863281 0.257812 10.3125 C 0.265625 10.492188 2.351562 28.125 8.265625 28.125 L 8.34375 28.125 C 9.109375 28.105469 9.84375 27.796875 10.527344 27.207031 C 11.050781 27.597656 11.726562 27.832031 12.355469 27.921875 C 12.769531 28.019531 13.519531 28.160156 14.417969 28.160156 C 15.511719 28.160156 16.496094 27.933594 17.347656 27.53125 C 17.347656 28.28125 17.34375 29.230469 17.335938 30.441406 L 17.332031 30.507812 L 17.335938 30.570312 C 17.421875 31.78125 17.628906 32.871094 17.945312 33.726562 C 18.839844 36.160156 20.386719 37.503906 22.300781 37.503906 C 22.378906 37.503906 22.460938 37.5 22.542969 37.496094 C 24.113281 37.398438 25.710938 36.515625 26.804688 35.132812 C 27.992188 33.636719 28.269531 32.058594 28.375 30.851562 L 28.378906 30.777344 L 28.378906 27.226562 L 28.46875 27.234375 L 28.839844 27.265625 L 28.875 27.269531 L 28.910156 27.269531 C 29.015625 27.277344 29.125 27.277344 29.238281 27.277344 C 30.519531 27.277344 32.101562 26.945312 33.171875 26.449219 C 34.191406 25.972656 36.527344 24.671875 36.121094 22.832031 Z M 36.121094 22.832031 " fill-opacity="1" fill-rule="nonzero"/></g><path fill="rgb(18.818665%, 49.01886%, 27.449036%)" d="M 26.675781 26.421875 C 26.675781 26.246094 26.6875 26.101562 26.691406 25.9375 C 26.683594 25.726562 26.675781 25.566406 26.675781 25.566406 C 26.675781 25.566406 26.6875 25.558594 26.703125 25.550781 C 26.832031 23.269531 27.457031 22.394531 28.132812 21.894531 C 28.039062 21.761719 27.929688 21.621094 27.828125 21.488281 C 27.542969 21.117188 27.191406 20.652344 26.8125 20.0625 L 26.742188 19.925781 C 26.683594 19.789062 26.546875 19.546875 26.371094 19.230469 C 25.363281 17.40625 23.265625 13.609375 24.699219 11.214844 C 25.328125 10.164062 26.507812 9.558594 28.210938 9.410156 C 27.515625 7.429688 24.90625 2.65625 18.992188 2.558594 C 18.992188 2.558594 18.988281 2.558594 18.988281 2.558594 C 13.839844 2.472656 12.148438 7.152344 11.597656 9.949219 C 12.355469 9.625 13.222656 9.429688 14.015625 9.429688 C 14.027344 9.429688 14.039062 9.429688 14.050781 9.429688 C 16.003906 9.445312 17.34375 10.488281 17.734375 12.289062 C 18.019531 13.613281 18.15625 14.769531 18.152344 15.828125 C 18.144531 18.148438 17.679688 19.367188 17.265625 20.441406 L 17.136719 20.789062 C 17.027344 21.074219 16.917969 21.339844 16.8125 21.585938 C 16.703125 21.839844 16.609375 22.066406 16.539062 22.269531 C 16.953125 22.363281 17.277344 22.496094 17.5 22.59375 L 17.628906 22.652344 C 17.667969 22.667969 17.707031 22.6875 17.746094 22.710938 C 18.46875 23.148438 18.917969 23.824219 19.015625 24.613281 C 19.066406 25.039062 19.058594 27.929688 19.039062 30.457031 C 19.113281 31.550781 19.300781 32.46875 19.546875 33.136719 C 19.894531 34.085938 20.765625 35.898438 22.4375 35.792969 C 23.605469 35.722656 24.726562 35.011719 25.472656 34.074219 C 26.273438 33.066406 26.566406 31.953125 26.679688 30.699219 L 26.679688 26.421875 Z M 26.675781 26.421875 " fill-opacity="1" fill-rule="nonzero"/><path fill="rgb(18.818665%, 49.01886%, 27.449036%)" d="M 11.433594 22.089844 C 10.058594 20.652344 9.386719 18.722656 9.640625 16.925781 C 9.882812 15.191406 9.746094 13.496094 9.671875 12.582031 C 9.644531 12.277344 9.628906 12.050781 9.628906 11.925781 C 9.628906 11.917969 9.632812 11.914062 9.632812 11.90625 C 9.632812 11.902344 9.632812 11.898438 9.632812 11.898438 C 9.734375 9.320312 10.726562 5.261719 13.460938 2.847656 C 12.128906 2.320312 9.960938 1.628906 7.925781 1.703125 C 4.738281 1.820312 1.648438 4.027344 1.960938 10.226562 C 2.078125 12.554688 4.707031 26.507812 8.300781 26.421875 C 8.816406 26.40625 9.347656 26.078125 9.898438 25.417969 C 10.761719 24.375 11.605469 23.429688 12.203125 22.773438 C 11.9375 22.570312 11.675781 22.34375 11.433594 22.089844 Z M 30.105469 9.996094 C 30.117188 10.128906 30.105469 10.242188 30.085938 10.347656 C 30.113281 11.128906 30.027344 11.890625 29.941406 12.628906 C 29.878906 13.167969 29.8125 13.730469 29.796875 14.289062 C 29.777344 14.839844 29.855469 15.382812 29.9375 15.957031 C 30.128906 17.304688 30.328125 18.820312 29.285156 20.589844 C 29.476562 20.84375 29.644531 21.078125 29.78125 21.304688 C 33.710938 14.933594 35.292969 7.359375 33.78125 5.429688 C 31.496094 2.507812 28.332031 1.664062 25.824219 1.703125 C 25.039062 1.71875 24.324219 1.824219 23.714844 1.957031 C 28.042969 4.050781 29.96875 8.542969 30.105469 9.996094 Z M 33.496094 23.070312 C 31.222656 23.539062 30.128906 23.289062 29.601562 22.964844 C 29.515625 23.027344 29.429688 23.078125 29.351562 23.125 C 29.035156 23.316406 28.53125 23.625 28.410156 25.496094 C 28.480469 25.511719 28.542969 25.519531 28.617188 25.535156 L 28.988281 25.566406 C 30.113281 25.621094 31.585938 25.304688 32.453125 24.902344 C 34.3125 24.039062 35.328125 22.695312 33.496094 23.070312 Z M 17.320312 24.816406 C 17.289062 24.5625 17.152344 24.359375 16.902344 24.195312 L 16.808594 24.152344 C 16.5 24.019531 16.152344 23.863281 15.597656 23.863281 L 15.59375 23.863281 C 15.484375 23.871094 15.378906 23.878906 15.269531 23.878906 C 15.226562 23.878906 15.179688 23.875 15.136719 23.871094 C 14.734375 24.183594 14.160156 24.421875 12.738281 24.714844 C 10.199219 25.363281 11.695312 26.125 12.671875 26.246094 C 13.613281 26.480469 15.855469 26.769531 17.34375 25.554688 C 17.335938 25.171875 17.332031 24.910156 17.320312 24.816406 Z M 17.320312 24.816406 " fill-opacity="1" fill-rule="nonzero"/><path fill="rgb(18.818665%, 49.01886%, 27.449036%)" d="M 16.175781 13.210938 C 15.929688 13.46875 15.535156 13.695312 15.101562 13.625 C 14.394531 13.507812 13.855469 12.65625 13.894531 12.339844 C 13.929688 12.019531 14.535156 11.851562 15.238281 11.96875 C 15.484375 12.007812 15.707031 12.078125 15.894531 12.160156 C 15.621094 11.574219 15.128906 11.238281 14.375 11.15625 C 13.039062 11.007812 11.625 11.703125 11.339844 12.089844 C 11.347656 12.183594 11.355469 12.304688 11.367188 12.445312 C 11.449219 13.421875 11.59375 15.242188 11.324219 17.164062 C 11.148438 18.429688 11.660156 19.863281 12.660156 20.910156 C 13.304688 21.582031 14.058594 22.007812 14.804688 22.136719 C 14.898438 21.726562 15.066406 21.332031 15.242188 20.921875 C 15.335938 20.695312 15.4375 20.453125 15.535156 20.195312 L 15.671875 19.832031 C 16.050781 18.847656 16.441406 17.828125 16.449219 15.824219 C 16.453125 15.050781 16.355469 14.171875 16.175781 13.210938 Z M 28.25 16.199219 C 28.160156 15.578125 28.070312 14.933594 28.09375 14.238281 C 28.113281 13.605469 28.183594 13.007812 28.25 12.429688 C 28.300781 11.976562 28.34375 11.539062 28.367188 11.109375 C 27.269531 11.199219 26.539062 11.519531 26.191406 12.054688 C 26.335938 12.003906 26.496094 11.964844 26.675781 11.945312 C 27.4375 11.84375 27.992188 12.0625 28.054688 12.488281 C 28.101562 12.796875 27.839844 13.085938 27.726562 13.199219 C 27.488281 13.429688 27.191406 13.574219 26.890625 13.613281 C 26.835938 13.621094 26.777344 13.625 26.726562 13.625 C 26.425781 13.625 26.136719 13.523438 25.917969 13.371094 C 26.011719 15.050781 27.253906 17.300781 27.863281 18.402344 C 27.992188 18.640625 28.09375 18.828125 28.175781 18.992188 C 28.511719 18.035156 28.386719 17.167969 28.25 16.199219 Z M 28.25 16.199219 " fill-opacity="1" fill-rule="nonzero"/></svg>