<?xml version="1.0" encoding="UTF-8"?>
<svg xmlns="http://www.w3.org/2000/svg" xmlns:xlink="http://www.w3.org/1999/xlink" width="37.5pt" height="37.499999pt" viewBox="0 0 37.5 37.499999" version="1.2">
<defs>
<clipPath id="clip1">
  <path d="M 1.273438 1.273438 L 36.523438 1.273438 L 36.523438 36.523438 L 1.273438 36.523438 Z M 1.273438 1.273438 "/>
</clipPath>
</defs>
<g id="surface1">
<g clip-path="url(#clip1)" clip-rule="nonzero">
<path style=" stroke:none;fill-rule:nonzero;fill:rgb(18.818665%,49.01886%,27.449036%);fill-opacity:1;" d="M 5.191406 1.273438 C 3.03125 1.273438 1.273438 3.03125 1.273438 5.191406 L 1.273438 32.609375 C 1.273438 34.769531 3.03125 36.523438 5.191406 36.523438 L 32.609375 36.523438 C 34.769531 36.523438 36.523438 34.769531 36.523438 32.609375 L 36.523438 5.191406 C 36.523438 3.03125 34.769531 1.273438 32.609375 1.273438 Z M 18.898438 11.066406 C 24.675781 11.066406 28.046875 15.328125 30.121094 17.566406 C 30.828125 18.324219 30.828125 19.476562 30.121094 20.234375 C 28.046875 22.472656 24.675781 26.734375 18.898438 26.734375 C 13.121094 26.734375 9.753906 22.472656 7.679688 20.234375 C 6.976562 19.476562 6.976562 18.320312 7.679688 17.5625 C 9.753906 15.324219 13.121094 11.066406 18.898438 11.066406 Z M 18.898438 14.984375 C 18.644531 14.984375 18.386719 15.007812 18.136719 15.058594 C 17.882812 15.109375 17.640625 15.183594 17.402344 15.28125 C 17.164062 15.378906 16.9375 15.5 16.722656 15.644531 C 16.511719 15.785156 16.3125 15.949219 16.128906 16.128906 C 15.949219 16.3125 15.785156 16.511719 15.644531 16.722656 C 15.5 16.9375 15.378906 17.164062 15.28125 17.402344 C 15.183594 17.640625 15.109375 17.882812 15.058594 18.136719 C 15.007812 18.386719 14.984375 18.644531 14.984375 18.898438 C 14.984375 19.15625 15.007812 19.410156 15.058594 19.664062 C 15.109375 19.917969 15.183594 20.160156 15.28125 20.398438 C 15.378906 20.636719 15.5 20.863281 15.644531 21.074219 C 15.785156 21.289062 15.949219 21.488281 16.128906 21.667969 C 16.3125 21.851562 16.511719 22.015625 16.722656 22.15625 C 16.9375 22.300781 17.164062 22.421875 17.402344 22.519531 C 17.640625 22.617188 17.882812 22.691406 18.136719 22.742188 C 18.386719 22.792969 18.644531 22.816406 18.898438 22.816406 C 19.15625 22.816406 19.410156 22.792969 19.664062 22.742188 C 19.917969 22.691406 20.160156 22.617188 20.398438 22.519531 C 20.636719 22.421875 20.863281 22.300781 21.074219 22.15625 C 21.289062 22.015625 21.488281 21.851562 21.667969 21.667969 C 21.851562 21.488281 22.015625 21.289062 22.15625 21.074219 C 22.300781 20.863281 22.421875 20.636719 22.519531 20.398438 C 22.617188 20.160156 22.691406 19.917969 22.742188 19.664062 C 22.792969 19.410156 22.816406 19.15625 22.816406 18.898438 C 22.816406 18.644531 22.792969 18.386719 22.742188 18.136719 C 22.691406 17.882812 22.617188 17.640625 22.519531 17.402344 C 22.421875 17.164062 22.300781 16.9375 22.15625 16.722656 C 22.015625 16.511719 21.851562 16.3125 21.667969 16.128906 C 21.488281 15.949219 21.289062 15.785156 21.074219 15.644531 C 20.863281 15.5 20.636719 15.378906 20.398438 15.28125 C 20.160156 15.183594 19.917969 15.109375 19.664062 15.058594 C 19.410156 15.007812 19.15625 14.984375 18.898438 14.984375 Z M 18.898438 14.984375 "/>
</g>
</g>
</svg>
