<?xml version="1.0" encoding="UTF-8"?><svg xmlns="http://www.w3.org/2000/svg" xmlns:xlink="http://www.w3.org/1999/xlink" width="37.5" zoomAndPan="magnify" viewBox="0 0 37.5 37.499999" height="37.499999" preserveAspectRatio="xMidYMid meet" version="1.0"><defs><clipPath id="clip-0"><path d="M 0 2 L 37.007812 2 L 37.007812 36 L 0 36 Z M 0 2 " clip-rule="nonzero"/></clipPath></defs><path fill="rgb(18.818665%, 49.01886%, 27.449036%)" d="M 22.105469 18.742188 C 22.105469 19.1875 22.019531 19.617188 21.847656 20.03125 C 21.679688 20.441406 21.4375 20.804688 21.121094 21.121094 C 20.808594 21.4375 20.445312 21.679688 20.035156 21.851562 C 19.621094 22.023438 19.195312 22.109375 18.75 22.109375 C 18.304688 22.109375 17.878906 22.023438 17.464844 21.851562 C 17.054688 21.679688 16.691406 21.4375 16.378906 21.121094 C 16.0625 20.804688 15.820312 20.441406 15.652344 20.03125 C 15.480469 19.617188 15.394531 19.1875 15.394531 18.742188 C 15.394531 18.292969 15.480469 17.863281 15.652344 17.453125 C 15.820312 17.039062 16.0625 16.675781 16.378906 16.359375 C 16.691406 16.042969 17.054688 15.800781 17.464844 15.628906 C 17.878906 15.457031 18.304688 15.371094 18.75 15.371094 C 19.195312 15.371094 19.621094 15.457031 20.035156 15.628906 C 20.445312 15.800781 20.808594 16.042969 21.121094 16.359375 C 21.4375 16.675781 21.679688 17.039062 21.847656 17.453125 C 22.019531 17.863281 22.105469 18.292969 22.105469 18.742188 Z M 22.105469 18.742188 " fill-opacity="1" fill-rule="nonzero"/><g clip-path="url(#clip-0)"><path fill="rgb(18.818665%, 49.01886%, 27.449036%)" d="M 7.054688 24.707031 C 7.382812 24.816406 7.710938 24.925781 8.050781 25.023438 C 7.941406 25.464844 7.84375 25.898438 7.757812 26.347656 C 6.988281 30.429688 7.585938 33.664062 9.507812 34.773438 C 11.484375 35.921875 14.808594 34.746094 18.046875 31.898438 C 18.304688 31.671875 18.558594 31.4375 18.816406 31.183594 C 19.136719 31.5 19.476562 31.804688 19.8125 32.097656 C 22.945312 34.800781 26.042969 35.898438 27.957031 34.789062 C 29.933594 33.640625 30.578125 30.164062 29.742188 25.925781 C 29.679688 25.605469 29.605469 25.273438 29.523438 24.933594 C 29.757812 24.867188 29.984375 24.792969 30.210938 24.722656 C 34.4375 23.316406 37.5 21.042969 37.5 18.710938 C 37.5 16.484375 34.613281 14.324219 30.628906 12.945312 C 30.234375 12.8125 29.839844 12.6875 29.445312 12.570312 C 29.507812 12.296875 29.570312 12.027344 29.625 11.753906 C 30.527344 7.371094 29.933594 3.851562 27.933594 2.6875 C 26.007812 1.578125 22.867188 2.730469 19.6875 5.511719 C 19.371094 5.78125 19.066406 6.070312 18.773438 6.355469 C 18.574219 6.164062 18.367188 5.972656 18.164062 5.789062 C 14.832031 2.820312 11.492188 1.570312 9.492188 2.738281 C 7.574219 3.859375 7 7.175781 7.808594 11.320312 C 7.890625 11.730469 7.976562 12.136719 8.078125 12.546875 C 7.609375 12.679688 7.148438 12.828125 6.714844 12.984375 C 2.804688 14.34375 0 16.492188 0 18.710938 C 0 21.007812 2.988281 23.308594 7.054688 24.707031 Z M 17.015625 30.695312 C 15.804688 31.808594 14.40625 32.6875 12.882812 33.292969 C 12.070312 33.683594 11.132812 33.71875 10.296875 33.390625 C 9.132812 32.710938 8.648438 30.117188 9.308594 26.621094 C 9.390625 26.210938 9.476562 25.796875 9.578125 25.394531 C 11.21875 25.746094 12.875 25.988281 14.550781 26.113281 C 15.519531 27.488281 16.578125 28.804688 17.714844 30.042969 C 17.480469 30.269531 17.246094 30.488281 17.011719 30.695312 Z M 26.316406 16.886719 C 25.972656 16.238281 25.621094 15.59375 25.253906 14.960938 C 24.894531 14.335938 24.519531 13.71875 24.132812 13.109375 C 25.3125 13.253906 26.441406 13.453125 27.496094 13.695312 C 27.15625 14.785156 26.761719 15.84375 26.316406 16.886719 Z M 26.328125 20.550781 C 26.796875 21.617188 27.210938 22.695312 27.566406 23.808594 C 26.429688 24.066406 25.28125 24.265625 24.125 24.394531 C 24.519531 23.777344 24.894531 23.144531 25.261719 22.511719 C 25.632812 21.867188 25.984375 21.210938 26.328125 20.550781 Z M 25.484375 18.71875 C 24.992188 19.734375 24.464844 20.734375 23.902344 21.71875 C 23.34375 22.695312 22.75 23.644531 22.128906 24.585938 C 21.039062 24.667969 19.902344 24.707031 18.753906 24.707031 C 17.601562 24.707031 16.492188 24.667969 15.414062 24.601562 C 14.777344 23.667969 14.175781 22.710938 13.613281 21.734375 C 13.046875 20.757812 12.527344 19.761719 12.039062 18.75 L 12.035156 18.75 C 12.515625 17.734375 13.046875 16.738281 13.601562 15.761719 C 14.15625 14.785156 14.757812 13.835938 15.390625 12.902344 C 16.488281 12.820312 17.609375 12.777344 18.75 12.777344 C 19.894531 12.777344 21.023438 12.820312 22.113281 12.902344 C 22.734375 13.828125 23.328125 14.777344 23.894531 15.75 C 24.457031 16.71875 24.984375 17.710938 25.484375 18.71875 Z M 12.238281 14.976562 C 11.878906 15.597656 11.527344 16.238281 11.195312 16.886719 C 10.734375 15.789062 10.347656 14.71875 10.023438 13.679688 C 11.078125 13.445312 12.199219 13.253906 13.363281 13.105469 C 12.976562 13.714844 12.597656 14.339844 12.238281 14.976562 Z M 11.199219 20.605469 C 11.535156 21.253906 11.878906 21.894531 12.246094 22.527344 C 12.617188 23.167969 13 23.808594 13.402344 24.433594 C 12.261719 24.308594 11.125 24.125 10.003906 23.878906 C 10.328125 22.820312 10.730469 21.726562 11.199219 20.605469 Z M 18.808594 28.910156 C 18.0625 28.101562 17.316406 27.203125 16.589844 26.238281 C 17.292969 26.269531 18.019531 26.285156 18.75 26.285156 C 19.507812 26.285156 20.246094 26.269531 20.976562 26.230469 C 20.304688 27.164062 19.578125 28.054688 18.808594 28.910156 Z M 28.382812 31.117188 C 28.316406 32.011719 27.875 32.851562 27.171875 33.417969 C 26.007812 34.09375 23.527344 33.210938 20.84375 30.902344 C 20.539062 30.636719 20.230469 30.351562 19.914062 30.058594 C 21.035156 28.8125 22.070312 27.496094 23.007812 26.117188 C 24.683594 25.976562 26.351562 25.71875 28 25.34375 C 28.074219 25.644531 28.140625 25.945312 28.199219 26.242188 C 28.558594 27.832031 28.617188 29.484375 28.382812 31.117188 Z M 29.019531 14.085938 C 29.398438 14.195312 29.765625 14.3125 30.117188 14.429688 C 33.53125 15.605469 35.925781 17.359375 35.925781 18.695312 C 35.925781 20.136719 33.367188 22 29.714844 23.210938 C 29.507812 23.277344 29.304688 23.34375 29.09375 23.402344 C 28.578125 21.800781 27.949219 20.234375 27.226562 18.710938 C 27.929688 17.210938 28.523438 15.664062 29.019531 14.085938 Z M 20.71875 6.703125 C 23.445312 4.320312 25.984375 3.386719 27.144531 4.054688 C 28.382812 4.769531 28.859375 7.652344 28.082031 11.4375 C 28.03125 11.6875 27.976562 11.929688 27.914062 12.175781 C 26.285156 11.808594 24.640625 11.542969 22.984375 11.394531 C 22.03125 10.023438 20.992188 8.714844 19.863281 7.488281 C 20.148438 7.214844 20.425781 6.960938 20.71875 6.703125 Z M 18.765625 8.613281 C 19.535156 9.453125 20.257812 10.335938 20.933594 11.246094 C 19.484375 11.179688 18.023438 11.179688 16.574219 11.246094 C 17.292969 10.296875 18.03125 9.417969 18.765625 8.613281 Z M 10.269531 4.105469 C 11.5 3.386719 14.230469 4.417969 17.109375 6.976562 C 17.292969 7.136719 17.476562 7.3125 17.664062 7.488281 C 16.53125 8.714844 15.484375 10.023438 14.523438 11.394531 C 12.867188 11.539062 11.226562 11.796875 9.601562 12.160156 C 9.507812 11.785156 9.425781 11.402344 9.34375 11.019531 C 8.65625 7.457031 9.109375 4.777344 10.269531 4.105469 Z M 7.230469 14.472656 C 7.648438 14.328125 8.070312 14.195312 8.496094 14.070312 C 8.996094 15.664062 9.59375 17.234375 10.289062 18.746094 C 9.585938 20.285156 8.980469 21.871094 8.476562 23.488281 L 8.472656 23.492188 C 8.164062 23.402344 7.867188 23.308594 7.566406 23.203125 C 6.007812 22.710938 4.234375 21.929688 2.953125 20.910156 C 2.210938 20.394531 1.714844 19.601562 1.574219 18.710938 C 1.574219 17.363281 3.890625 15.644531 7.230469 14.472656 Z M 7.230469 14.472656 " fill-opacity="1" fill-rule="nonzero"/></g></svg>