<?xml version="1.0" encoding="UTF-8"?><svg xmlns="http://www.w3.org/2000/svg" xmlns:xlink="http://www.w3.org/1999/xlink" width="37.5" zoomAndPan="magnify" viewBox="0 0 37.5 37.499999" height="37.499999" preserveAspectRatio="xMidYMid meet" version="1.0"><defs><clipPath id="clip-0"><path d="M 0 0 L 37.007812 0 L 37.007812 37.007812 L 0 37.007812 Z M 0 0 " clip-rule="nonzero"/></clipPath></defs><g clip-path="url(#clip-0)"><path fill="rgb(18.818665%, 49.01886%, 27.449036%)" d="M 37.5 18.75 C 37.5 29.105469 29.105469 37.5 18.75 37.5 C 8.394531 37.5 0 29.105469 0 18.75 C 0 8.394531 8.394531 0 18.75 0 C 29.105469 0 37.5 8.394531 37.5 18.75 Z M 37.5 18.75 " fill-opacity="1" fill-rule="nonzero"/></g><path fill="rgb(100%, 100%, 100%)" d="M 24.066406 6.40625 L 9.449219 6.40625 L 9.449219 31.09375 L 28.050781 31.09375 L 28.050781 10.394531 L 24.066406 10.394531 Z M 24.066406 6.40625 " fill-opacity="1" fill-rule="nonzero"/><path fill="rgb(90.19928%, 91.369629%, 93.328857%)" d="M 24.066406 6.40625 L 24.066406 10.394531 L 28.050781 10.394531 Z M 24.066406 6.40625 " fill-opacity="1" fill-rule="nonzero"/><path fill="rgb(90.19928%, 91.369629%, 93.328857%)" d="M 11.308594 13.554688 L 26.191406 13.554688 L 26.191406 12.667969 L 11.308594 12.667969 Z M 11.308594 13.554688 " fill-opacity="1" fill-rule="nonzero"/><path fill="rgb(90.19928%, 91.369629%, 93.328857%)" d="M 11.308594 16.035156 L 26.191406 16.035156 L 26.191406 15.148438 L 11.308594 15.148438 Z M 11.308594 16.035156 " fill-opacity="1" fill-rule="nonzero"/><path fill="rgb(90.19928%, 91.369629%, 93.328857%)" d="M 11.308594 18.515625 L 26.191406 18.515625 L 26.191406 17.628906 L 11.308594 17.628906 Z M 11.308594 18.515625 " fill-opacity="1" fill-rule="nonzero"/><path fill="rgb(90.19928%, 91.369629%, 93.328857%)" d="M 11.308594 20.996094 L 26.191406 20.996094 L 26.191406 20.109375 L 11.308594 20.109375 Z M 11.308594 20.996094 " fill-opacity="1" fill-rule="nonzero"/><path fill="rgb(90.19928%, 91.369629%, 93.328857%)" d="M 11.308594 23.472656 L 26.191406 23.472656 L 26.191406 22.589844 L 11.308594 22.589844 Z M 11.308594 23.472656 " fill-opacity="1" fill-rule="nonzero"/><path fill="rgb(90.19928%, 91.369629%, 93.328857%)" d="M 11.308594 25.953125 L 26.191406 25.953125 L 26.191406 25.070312 L 11.308594 25.070312 Z M 11.308594 25.953125 " fill-opacity="1" fill-rule="nonzero"/><path fill="rgb(90.19928%, 91.369629%, 93.328857%)" d="M 11.308594 28.433594 L 18.011719 28.433594 L 18.011719 27.550781 L 11.308594 27.550781 Z M 11.308594 28.433594 " fill-opacity="1" fill-rule="nonzero"/></svg>