<?xml version="1.0" encoding="UTF-8"?><svg xmlns="http://www.w3.org/2000/svg" xmlns:xlink="http://www.w3.org/1999/xlink" width="37.5" zoomAndPan="magnify" viewBox="0 0 37.5 37.499999" height="37.499999" preserveAspectRatio="xMidYMid meet" version="1.0"><defs><clipPath id="clip-0"><path d="M 0 0 L 37.007812 0 L 37.007812 37.007812 L 0 37.007812 Z M 0 0 " clip-rule="nonzero"/></clipPath></defs><g clip-path="url(#clip-0)"><path fill="rgb(18.818665%, 49.01886%, 27.449036%)" d="M 0 37.5 L 37.5 37.5 L 37.5 0 L 0 0 Z M 0 37.5 " fill-opacity="1" fill-rule="nonzero"/></g><path fill="rgb(100%, 100%, 100%)" d="M 8.289062 18.871094 L 8.277344 20.410156 L 13.160156 20.410156 L 13.160156 34.277344 L 16.613281 34.277344 L 16.613281 20.410156 L 21.492188 20.410156 L 21.492188 18.902344 C 21.492188 18.070312 21.476562 17.371094 21.453125 17.355469 C 21.433594 17.332031 18.464844 17.320312 14.863281 17.328125 L 8.308594 17.34375 Z M 8.289062 18.871094 " fill-opacity="1" fill-rule="nonzero"/><path fill="rgb(100%, 100%, 100%)" d="M 30.257812 17.300781 C 31.210938 17.539062 31.9375 17.960938 32.605469 18.652344 C 32.949219 19.019531 33.460938 19.691406 33.503906 19.855469 C 33.515625 19.902344 31.882812 20.996094 30.894531 21.609375 C 30.859375 21.632812 30.71875 21.480469 30.554688 21.242188 C 30.074219 20.539062 29.566406 20.234375 28.792969 20.183594 C 27.65625 20.105469 26.925781 20.699219 26.929688 21.695312 C 26.929688 21.984375 26.972656 22.160156 27.09375 22.394531 C 27.34375 22.914062 27.808594 23.222656 29.265625 23.855469 C 31.949219 25.007812 33.097656 25.769531 33.8125 26.855469 C 34.609375 28.0625 34.789062 29.992188 34.246094 31.425781 C 33.652344 32.984375 32.175781 34.042969 30.097656 34.394531 C 29.457031 34.507812 27.933594 34.492188 27.242188 34.367188 C 25.734375 34.097656 24.304688 33.355469 23.425781 32.378906 C 23.082031 31.996094 22.40625 31.003906 22.449219 30.929688 C 22.46875 30.90625 22.621094 30.8125 22.792969 30.710938 C 22.960938 30.617188 23.59375 30.253906 24.1875 29.90625 L 25.265625 29.285156 L 25.492188 29.617188 C 25.804688 30.097656 26.496094 30.757812 26.914062 30.980469 C 28.109375 31.609375 29.753906 31.519531 30.5625 30.796875 C 30.910156 30.480469 31.050781 30.152344 31.050781 29.671875 C 31.050781 29.234375 30.996094 29.042969 30.769531 28.71875 C 30.480469 28.300781 29.882812 27.949219 28.195312 27.21875 C 26.257812 26.382812 25.425781 25.867188 24.664062 25.042969 C 24.222656 24.566406 23.808594 23.804688 23.632812 23.167969 C 23.492188 22.640625 23.457031 21.3125 23.566406 20.777344 C 23.96875 18.90625 25.378906 17.605469 27.414062 17.21875 C 28.074219 17.09375 29.609375 17.140625 30.257812 17.300781 Z M 30.257812 17.300781 " fill-opacity="1" fill-rule="nonzero"/></svg>