<?xml version="1.0" encoding="UTF-8" standalone="no"?>
<svg
   xmlns:dc="http://purl.org/dc/elements/1.1/"
   xmlns:cc="http://creativecommons.org/ns#"
   xmlns:rdf="http://www.w3.org/1999/02/22-rdf-syntax-ns#"
   xmlns:svg="http://www.w3.org/2000/svg"
   xmlns="http://www.w3.org/2000/svg"
   xmlns:sodipodi="http://sodipodi.sourceforge.net/DTD/sodipodi-0.dtd"
   xmlns:inkscape="http://www.inkscape.org/namespaces/inkscape"
   width="487.85684"
   height="487.85654"
   viewBox="0 0 129.07878 129.07871"
   version="1.1"
   id="svg8"
   inkscape:version="1.0.2-2 (e86c870879, 2021-01-15)"
   sodipodi:docname="wbpage v2.svg">
  <defs
     id="defs2">
    <clipPath
       id="clip1">
      <path
         d="m 1.8125,1.8125 h 33.75 v 33.75 h -33.75 z m 0,0"
         id="path30" />
    </clipPath>
    <clipPath
       id="clip1-6">
      <path
         d="M 2.332031 11 L 35.332031 11 L 35.332031 33.789062 L 2.332031 33.789062 Z M 2.332031 11 "
         id="path200" />
    </clipPath>
    <clipPath
       id="clip2">
      <path
         d="M 2.332031 3.789062 L 35.332031 3.789062 L 35.332031 10 L 2.332031 10 Z M 2.332031 3.789062 "
         id="path203" />
    </clipPath>
  </defs>
  <sodipodi:namedview
     id="base"
     pagecolor="#ffffff"
     bordercolor="#666666"
     borderopacity="1.0"
     inkscape:pageopacity="0.0"
     inkscape:pageshadow="2"
     inkscape:zoom="1.4"
     inkscape:cx="234.07774"
     inkscape:cy="242.21735"
     inkscape:document-units="mm"
     inkscape:current-layer="layer1"
     inkscape:document-rotation="0"
     showgrid="false"
     inkscape:pagecheckerboard="true"
     fit-margin-top="20"
     fit-margin-left="20"
     fit-margin-right="20"
     fit-margin-bottom="20"
     lock-margins="true"
     units="px"
     inkscape:window-width="1814"
     inkscape:window-height="1040"
     inkscape:window-x="2697"
     inkscape:window-y="433"
     inkscape:window-maximized="0" />
  <metadata
     id="metadata5">
    <rdf:RDF>
      <cc:Work
         rdf:about="">
        <dc:format>image/svg+xml</dc:format>
        <dc:type
           rdf:resource="http://purl.org/dc/dcmitype/StillImage" />
        <dc:title></dc:title>
      </cc:Work>
    </rdf:RDF>
  </metadata>
  <g
     inkscape:label="Layer 1"
     inkscape:groupmode="layer"
     id="layer1"
     transform="translate(-40.159972,-55.279022)">
    <g
       id="g67">
      <g
         id="g167" />
    </g>
    <g
       id="g257">
      <g
         clip-path="url(#clip1-6)"
         clip-rule="nonzero"
         id="g210"
         transform="matrix(3.6430998,0,0,3.6430998,36.208146,51.261838)">
        <path
           style="fill:#2e7d45;fill-opacity:1;fill-rule:nonzero;stroke:none"
           d="m 2.398438,11.988281 v 19.097657 c 0,1.5 1.234374,2.730468 2.738281,2.730468 h 27.390625 c 1.503906,0 2.738281,-1.230468 2.738281,-2.730468 V 11.988281 Z m 4.109374,4.089844 h 16.433594 v 2.730469 H 6.507812 Z M 28.417969,29.722656 H 6.507812 V 26.992188 H 28.417969 Z M 31.15625,24.265625 H 9.246094 V 21.535156 H 31.15625 Z m 0,0"
           id="path208" />
      </g>
      <g
         clip-path="url(#clip2)"
         clip-rule="nonzero"
         id="g214"
         transform="matrix(3.6430998,0,0,3.6430998,36.208146,49.674337)">
        <path
           id="path212"
           style="fill:#2e7d45;fill-opacity:1;fill-rule:nonzero;stroke:none;stroke-width:13.7692"
           d="M 55.792969 31.150391 C 35.085378 31.150391 18.087891 48.0923 18.087891 68.746094 L 18.087891 106.28906 L 470.64258 106.28906 L 470.64258 68.746094 C 470.64258 48.0923 453.64703 31.150391 432.93945 31.150391 L 55.792969 31.150391 z M 52.726562 50.919922 C 54.824219 50.919922 56.868394 51.296723 58.804688 52.103516 C 60.794764 52.964091 62.515479 54.093604 64.021484 55.599609 C 65.52749 57.105615 66.657006 58.82633 67.517578 60.816406 C 68.32436 62.7527 68.701172 64.796878 68.701172 66.894531 C 68.701172 69.045967 68.324371 71.089097 67.517578 73.025391 C 66.657006 75.015467 65.52749 76.736182 64.021484 78.242188 C 62.515479 79.748197 60.794764 80.878758 58.804688 81.685547 C 56.868394 82.49234 54.824219 82.921875 52.726562 82.921875 C 50.575127 82.921875 48.531997 82.49234 46.595703 81.685547 C 44.605627 80.878758 42.882959 79.748197 41.376953 78.242188 C 39.870947 76.736182 38.74234 75.015467 37.935547 73.025391 C 37.128754 71.089097 36.699219 69.045967 36.699219 66.894531 C 36.699219 64.796878 37.128754 62.7527 37.935547 60.816406 C 38.74234 58.82633 39.870947 57.105615 41.376953 55.599609 C 42.882959 54.093604 44.605627 52.964091 46.595703 52.103516 C 48.531997 51.296734 50.575127 50.919922 52.726562 50.919922 z M 93.056641 50.919922 C 95.154294 50.919922 97.197409 51.296723 99.1875 52.103516 C 101.12379 52.964091 102.84556 54.093604 104.35156 55.599609 C 105.85757 57.105615 107.04086 58.82633 107.84766 60.816406 C 108.65444 62.7527 109.03125 64.796878 109.03125 66.894531 C 109.03125 69.045967 108.65445 71.089097 107.84766 73.025391 C 107.04086 75.015467 105.85757 76.736182 104.35156 78.242188 C 102.84556 79.748197 101.12379 80.878758 99.1875 81.685547 C 97.197409 82.49234 95.154294 82.921875 93.056641 82.921875 C 90.905205 82.921875 88.860122 82.49234 86.923828 81.685547 C 84.933752 80.878758 83.213052 79.748197 81.707031 78.242188 C 80.201037 76.736182 79.072418 75.015467 78.265625 73.025391 C 77.458847 71.089097 77.027344 69.045967 77.027344 66.894531 C 77.027344 64.796878 77.458847 62.7527 78.265625 60.816406 C 79.072418 58.82633 80.201037 57.105615 81.707031 55.599609 C 83.213052 54.093604 84.933752 52.964091 86.923828 52.103516 C 88.860122 51.296734 90.905205 50.919922 93.056641 50.919922 z M 133.24414 50.919922 C 135.39558 50.919922 137.43871 51.296723 139.375 52.103516 C 141.36508 52.964091 143.08773 54.093604 144.59375 55.599609 C 146.09974 57.105615 147.22837 58.82633 148.03516 60.816406 C 148.8419 62.7527 149.27148 64.796878 149.27148 66.894531 C 149.27148 69.045967 148.8419 71.089097 148.03516 73.025391 C 147.22837 75.015467 146.09974 76.736182 144.59375 78.242188 C 143.08773 79.748197 141.36508 80.878758 139.375 81.685547 C 137.43871 82.49234 135.39558 82.921875 133.24414 82.921875 C 131.14649 82.921875 129.10337 82.49234 127.11328 81.685547 C 125.17699 80.878758 123.45522 79.748197 121.94922 78.242188 C 120.44321 76.736182 119.25992 75.015467 118.45312 73.025391 C 117.64635 71.089097 117.26953 69.045967 117.26953 66.894531 C 117.26953 64.796878 117.64634 62.7527 118.45312 60.816406 C 119.25992 58.82633 120.44321 57.105615 121.94922 55.599609 C 123.45522 54.093604 125.17699 52.964091 127.11328 52.103516 C 129.10337 51.296734 131.14649 50.919922 133.24414 50.919922 z "
           transform="matrix(0.07262588,0,0,0.07262588,1.0847427,1.5384385)" />
      </g>
    </g>
  </g>
  <g
     inkscape:groupmode="layer"
     id="layer2"
     inkscape:label="Layer 2"
     transform="translate(-40.159972,-55.279022)" />
</svg>
