<?xml version="1.0" encoding="UTF-8"?>
<svg xmlns="http://www.w3.org/2000/svg" xmlns:xlink="http://www.w3.org/1999/xlink" width="37.5pt" height="37.499999pt" viewBox="0 0 37.5 37.499999" version="1.2">
<defs>
<clipPath id="clip1">
  <path d="M 2.332031 11 L 35.332031 11 L 35.332031 33.789062 L 2.332031 33.789062 Z M 2.332031 11 "/>
</clipPath>
<clipPath id="clip2">
  <path d="M 2.332031 3.789062 L 35.332031 3.789062 L 35.332031 10 L 2.332031 10 Z M 2.332031 3.789062 "/>
</clipPath>
</defs>
<g id="surface1">
<g clip-path="url(#clip1)" clip-rule="nonzero">
<path style=" stroke:none;fill-rule:nonzero;fill:rgb(18.818665%,49.01886%,27.449036%);fill-opacity:1;" d="M 2.398438 11.988281 L 2.398438 31.085938 C 2.398438 32.585938 3.632812 33.816406 5.136719 33.816406 L 32.527344 33.816406 C 34.03125 33.816406 35.265625 32.585938 35.265625 31.085938 L 35.265625 11.988281 Z M 6.507812 16.078125 L 22.941406 16.078125 L 22.941406 18.808594 L 6.507812 18.808594 Z M 28.417969 29.722656 L 6.507812 29.722656 L 6.507812 26.992188 L 28.417969 26.992188 Z M 31.15625 24.265625 L 9.246094 24.265625 L 9.246094 21.535156 L 31.15625 21.535156 Z M 31.15625 24.265625 "/>
</g>
<g clip-path="url(#clip2)" clip-rule="nonzero">
<path style=" stroke:none;fill-rule:nonzero;fill:rgb(18.818665%,49.01886%,27.449036%);fill-opacity:1;" d="M 35.265625 9.257812 L 35.265625 6.53125 C 35.265625 5.03125 34.03125 3.800781 32.527344 3.800781 L 5.136719 3.800781 C 3.632812 3.800781 2.398438 5.03125 2.398438 6.53125 L 2.398438 9.257812 Z M 35.265625 9.257812 "/>
</g>
<path style=" stroke:none;fill-rule:nonzero;fill:rgb(100%,100%,100%);fill-opacity:1;" d="M 4.914062 4.800781 C 4.757812 4.800781 4.609375 4.828125 4.46875 4.886719 C 4.324219 4.949219 4.199219 5.03125 4.089844 5.140625 C 3.980469 5.25 3.898438 5.375 3.839844 5.519531 C 3.78125 5.660156 3.75 5.808594 3.75 5.960938 C 3.75 6.117188 3.78125 6.265625 3.839844 6.40625 C 3.898438 6.550781 3.980469 6.675781 4.089844 6.785156 C 4.199219 6.894531 4.324219 6.976562 4.46875 7.035156 C 4.609375 7.09375 4.757812 7.125 4.914062 7.125 C 5.066406 7.125 5.214844 7.09375 5.355469 7.035156 C 5.5 6.976562 5.625 6.894531 5.734375 6.785156 C 5.84375 6.675781 5.925781 6.550781 5.988281 6.40625 C 6.046875 6.265625 6.074219 6.117188 6.074219 5.960938 C 6.074219 5.808594 6.046875 5.660156 5.988281 5.519531 C 5.925781 5.375 5.84375 5.25 5.734375 5.140625 C 5.625 5.03125 5.5 4.949219 5.355469 4.886719 C 5.214844 4.828125 5.066406 4.800781 4.914062 4.800781 Z M 4.914062 4.800781 "/>
<path style=" stroke:none;fill-rule:nonzero;fill:rgb(100%,100%,100%);fill-opacity:1;" d="M 7.988281 4.800781 C 7.832031 4.800781 7.683594 4.828125 7.542969 4.886719 C 7.398438 4.949219 7.273438 5.03125 7.164062 5.140625 C 7.054688 5.25 6.972656 5.375 6.914062 5.519531 C 6.855469 5.660156 6.824219 5.808594 6.824219 5.960938 C 6.824219 6.117188 6.855469 6.265625 6.914062 6.40625 C 6.972656 6.550781 7.054688 6.675781 7.164062 6.785156 C 7.273438 6.894531 7.398438 6.976562 7.542969 7.035156 C 7.683594 7.09375 7.832031 7.125 7.988281 7.125 C 8.140625 7.125 8.289062 7.09375 8.433594 7.035156 C 8.574219 6.976562 8.699219 6.894531 8.808594 6.785156 C 8.917969 6.675781 9.003906 6.550781 9.0625 6.40625 C 9.121094 6.265625 9.148438 6.117188 9.148438 5.960938 C 9.148438 5.808594 9.121094 5.660156 9.0625 5.519531 C 9.003906 5.375 8.917969 5.25 8.808594 5.140625 C 8.699219 5.03125 8.574219 4.949219 8.433594 4.886719 C 8.289062 4.828125 8.140625 4.800781 7.988281 4.800781 Z M 7.988281 4.800781 "/>
<path style=" stroke:none;fill-rule:nonzero;fill:rgb(100%,100%,100%);fill-opacity:1;" d="M 10.761719 4.800781 C 10.609375 4.800781 10.460938 4.828125 10.316406 4.886719 C 10.175781 4.949219 10.050781 5.03125 9.941406 5.140625 C 9.832031 5.25 9.746094 5.375 9.6875 5.519531 C 9.628906 5.660156 9.601562 5.808594 9.601562 5.960938 C 9.601562 6.117188 9.628906 6.265625 9.6875 6.40625 C 9.746094 6.550781 9.832031 6.675781 9.941406 6.785156 C 10.050781 6.894531 10.175781 6.976562 10.316406 7.035156 C 10.460938 7.09375 10.609375 7.125 10.761719 7.125 C 10.917969 7.125 11.066406 7.09375 11.207031 7.035156 C 11.351562 6.976562 11.476562 6.894531 11.585938 6.785156 C 11.695312 6.675781 11.777344 6.550781 11.835938 6.40625 C 11.894531 6.265625 11.925781 6.117188 11.925781 5.960938 C 11.925781 5.808594 11.894531 5.660156 11.835938 5.519531 C 11.777344 5.375 11.695312 5.25 11.585938 5.140625 C 11.476562 5.03125 11.351562 4.949219 11.207031 4.886719 C 11.066406 4.828125 10.917969 4.800781 10.761719 4.800781 Z M 10.761719 4.800781 "/>
</g>
</svg>
